<svg id="Capa_1" data-name="Capa 1" xmlns="http://www.w3.org/2000/svg" viewBox="0 0 112.79 112.82"><defs><style>.cls-1{fill:#68d1f5;}.cls-2{fill:#4c9bb5;}.cls-3{fill:#fff;}</style></defs><title>Back_02</title><rect class="cls-1" width="111" height="111" rx="55.5"/><circle class="cls-2" cx="55.5" cy="55.5" r="44"/><path class="cls-3" d="M78.5,52.5H44.75L58.62,41.4a5,5,0,0,0-6.24-7.8l-25,20,0,0-.2.19-.34.34-.19.2s0,0,0,0a1.53,1.53,0,0,0-.11.16c-.09.12-.17.25-.25.38a2.26,2.26,0,0,0-.16.26,2,2,0,0,0-.1.21c-.06.13-.11.26-.16.4s-.08.19-.11.28l-.06.25c0,.13,0,.26-.07.4s0,.2,0,.3a2.71,2.71,0,0,0,0,.29c0,.06,0,.12,0,.19s0,.13,0,.19a2.71,2.71,0,0,0,0,.29c0,.1,0,.2,0,.3s0,.27.07.4l.06.25c0,.09.08.19.11.28s.1.27.16.4a2,2,0,0,0,.1.21,2.26,2.26,0,0,0,.16.26c.08.13.16.26.25.38a1.53,1.53,0,0,0,.11.16l0,0,.09.1L27,61s0,0,0,0,.25.23.38.34l0,0,0,0h0l25,20a5,5,0,0,0,6.24-7.8L44.75,62.5H78.5a5,5,0,0,0,0-10Z"/></svg>