<svg id="Capa_1" data-name="Capa 1" xmlns="http://www.w3.org/2000/svg" viewBox="0 0 399.74 111.58"><defs><style>.cls-1{fill:#fff;}</style></defs><title>Logo_tipo</title><path class="cls-1" d="M274.49,57c0-4.81,0-9.62,0-14.43,0-2.05.17-4.09.21-6.13a5.41,5.41,0,0,1,1.22-3.35,4.88,4.88,0,0,1,6.29-.72,15.19,15.19,0,0,1,1.65,1.55,1,1,0,0,0,1.3.24,22,22,0,0,1,6.73-1.95,20.28,20.28,0,0,1,11.21,1.56,25.55,25.55,0,0,1,5.57,3.49c.79.65.82.67,1.61,0a22.5,22.5,0,0,1,6.37-3.88,21.42,21.42,0,0,1,10.61-1.12,19.6,19.6,0,0,1,8.47,3,18.92,18.92,0,0,1,8.33,12.89,40.68,40.68,0,0,1,.47,7.23c0,6.18,0,12.36,0,18.53a8.15,8.15,0,0,1-.27,2.36,4.77,4.77,0,0,1-4.69,3.58,5.76,5.76,0,0,1-2.78-.38,5.14,5.14,0,0,1-3-4.95q0-7.62,0-15.24a67.05,67.05,0,0,0-.19-6.8,14.17,14.17,0,0,0-1.7-6A9,9,0,0,0,320.69,43a8.43,8.43,0,0,0-4.83,5.43,17.58,17.58,0,0,0-.89,5.34c-.15,6.56,0,13.11,0,19.67a7.8,7.8,0,0,1-.88,4,4.42,4.42,0,0,1-4,2.4,8.15,8.15,0,0,1-2.15-.1,4.89,4.89,0,0,1-3.75-4.59c0-.3,0-.61,0-.91,0-6.18,0-12.36,0-18.53a24.44,24.44,0,0,0-.67-6.08,9.67,9.67,0,0,0-4.22-6.09c-4.18-2.6-11-1.31-13.08,4.47a19.93,19.93,0,0,0-.89,6c-.32,6.44-.09,12.88-.18,19.32a11.79,11.79,0,0,1-.2,2.71,4.67,4.67,0,0,1-4.62,3.77,7.05,7.05,0,0,1-2.37-.19,4.7,4.7,0,0,1-3.32-3.94,16.44,16.44,0,0,1-.17-2.71C274.5,67.68,274.49,62.34,274.49,57Z"/><path class="cls-1" d="M40.12,37.53a3,3,0,0,0,.15-1.46q0-11,0-22a8.56,8.56,0,0,1,.41-2.67A5.06,5.06,0,0,1,46.55,8a5,5,0,0,1,4.14,4.72c0,.84.05,1.67.05,2.5V51.48c0,2.61,0,5.23-.07,7.84-.33,8.19-4,14.45-11.09,18.6A24.16,24.16,0,0,1,29,81,24.47,24.47,0,0,1,17.8,79.37,23.26,23.26,0,0,1,3.37,60,23.86,23.86,0,0,1,8.73,42.11a22.58,22.58,0,0,1,14.33-8A21.94,21.94,0,0,1,27,33.75a24.77,24.77,0,0,1,6.93,1A36.35,36.35,0,0,1,40.12,37.53Zm.19,19.95c0-.68,0-1.37-.11-2A13.16,13.16,0,0,0,25.07,44.09c-6.69,1-11.39,6.37-11.36,13.7a13.4,13.4,0,0,0,1.84,6.59A13.19,13.19,0,0,0,33,69.69C37.92,67.15,40.12,62.89,40.31,57.48Z"/><path class="cls-1" d="M267.39,53.43c0,4.28,0,8.56,0,12.84,0,2.72-.18,5.44-.22,8.17,0,3-1.7,4.5-4.76,4.9a3.75,3.75,0,0,1-3.09-1.16,14.11,14.11,0,0,1-1.63-1.74c-.65-.85-.67-.84-1.67-.32A28.16,28.16,0,0,1,247.82,79a21.76,21.76,0,0,1-13.38-1.79c-7.41-3.47-12-9.29-13.33-17.36a23,23,0,0,1,11.35-24.1A22.21,22.21,0,0,1,246.9,33a27.73,27.73,0,0,1,9,2.82c1.06.54,1.07.53,1.86-.38.35-.39.69-.8,1.06-1.18a4.76,4.76,0,0,1,5-1.27,4.59,4.59,0,0,1,3.34,3.92,14.52,14.52,0,0,1,.23,2.71V53.43ZM243.92,69A12.85,12.85,0,0,0,257.1,56a13,13,0,0,0-13-13.1,13.21,13.21,0,0,0-13.1,13C231,63.29,237.2,69.13,243.92,69Z"/><path class="cls-1" d="M192.13,79.88a22.09,22.09,0,0,1-15-6,23.56,23.56,0,0,1-6.53-10.07,21.6,21.6,0,0,1-1.15-8.05,23.13,23.13,0,0,1,5.82-14.68,23.31,23.31,0,0,1,26.93-5.8c.45.2.91.37,1.36.57a2.78,2.78,0,0,0,3.33-.63A9.76,9.76,0,0,1,208.38,34a5,5,0,0,1,6.26,7.83,7.48,7.48,0,0,0-.72.88,3.67,3.67,0,0,0-.17,3.68,30.36,30.36,0,0,1,1.51,4.16,23.11,23.11,0,0,1-1.38,16.05,22.75,22.75,0,0,1-13.23,11.93A23.59,23.59,0,0,1,192.13,79.88ZM179.84,56.7a12.61,12.61,0,0,0,12.88,12.8A12.76,12.76,0,0,0,205.77,56a13.07,13.07,0,0,0-13.14-12.53A12.9,12.9,0,0,0,179.84,56.7Z"/><path class="cls-1" d="M108.68,56.64A23,23,0,0,1,125,34.3a22.2,22.2,0,0,1,14.91.42c1.26.5,2.52,1,3.76,1.58a1,1,0,0,0,1.39-.22,13.65,13.65,0,0,1,1.56-1.48A5.22,5.22,0,0,1,155,36.44a4.38,4.38,0,0,1-1,5.14c-1.76,1.76-1.73,3.56-.79,5.59a23.12,23.12,0,0,1,.38,18.1,22.72,22.72,0,0,1-16.88,14.1,21.72,21.72,0,0,1-14.09-1.43c-7.42-3.37-11.86-9.17-13.6-17.08A15.51,15.51,0,0,1,108.68,56.64ZM119,56.45c0,6.69,4.81,13,12.89,13,7.08,0,13-5,13.11-12.87a13,13,0,1,0-26-.18Z"/><path class="cls-1" d="M374.41,81.05c-8.31-.23-15-3.62-19.61-10.6a22.33,22.33,0,0,1-3.53-10.65A23,23,0,0,1,354.81,45a22.2,22.2,0,0,1,15.71-10.16,25.72,25.72,0,0,1,4.28-.4,21.77,21.77,0,0,1,16.67,7.46,19.9,19.9,0,0,1,2.81,3.71,4.73,4.73,0,0,1,.4,4.64,7,7,0,0,1-2.4,2.53q-3.19,2.18-6.46,4.25c-3,1.89-6,3.73-8.95,5.6a8.28,8.28,0,0,1-4.74,1.3A3.62,3.62,0,0,1,369,62.19c-1.45-2.3-1.68-5.23,1.28-7.4,2-1.48,4.17-2.76,6.26-4.12,1.37-.89,2.75-1.75,4.11-2.65,1-.66,1-.85,0-1.45A12,12,0,0,0,371,45.21a13,13,0,1,0,12.75,21.61,8.28,8.28,0,0,1,2.17-1.64,4.83,4.83,0,0,1,6.15,1.23,5,5,0,0,1,.18,6.21,19.8,19.8,0,0,1-8,6.34A23.87,23.87,0,0,1,374.41,81.05Z"/><path class="cls-1" d="M103,56.19V72.67a19.86,19.86,0,0,1-.38,3.26c-.61,3.64-5.5,4.75-8,2.38A17.9,17.9,0,0,1,93,76.52a.89.89,0,0,0-1.34-.23,23.75,23.75,0,0,1-8.3,2.94c-6.91,1-13.16-.47-18.58-4.94a22.48,22.48,0,0,1-8.07-13.81,17.13,17.13,0,0,1-.31-3q0-9.44,0-18.87A7.6,7.6,0,0,1,56.86,36,4.41,4.41,0,0,1,61,33c3.37-.14,5.43,1.81,5.45,5.21,0,5.35,0,10.69,0,16a17.71,17.71,0,0,0,1.7,8,12.38,12.38,0,0,0,9.56,6.87,11.88,11.88,0,0,0,11.05-3.63A14.18,14.18,0,0,0,92.58,56c.27-5.41.15-10.83.17-16.24a13.2,13.2,0,0,1,.46-3.48A4.24,4.24,0,0,1,97.42,33a7.35,7.35,0,0,1,1.69.09,4.17,4.17,0,0,1,3.32,3.07,12.79,12.79,0,0,1,.56,3.69C103,45.28,103,50.74,103,56.19Z"/><path class="cls-1" d="M191.81,102.36a20.83,20.83,0,0,1-14.39-5.56,23.42,23.42,0,0,1-5.73-8.09,7.18,7.18,0,0,1-.75-3.72,4.88,4.88,0,0,1,4.43-4,4.63,4.63,0,0,1,4.48,2.13c.48.69.86,1.42,1.27,2.15a13,13,0,0,0,9.07,6.93,12.62,12.62,0,0,0,11.51-3.29,20.22,20.22,0,0,0,3.55-5A5.58,5.58,0,0,1,208,81.26a4.84,4.84,0,0,1,4.92.75,4.26,4.26,0,0,1,1.66,4.41,16.09,16.09,0,0,1-4.42,8.29,23.81,23.81,0,0,1-14.84,7.35A19.21,19.21,0,0,1,191.81,102.36Z"/></svg>