<svg id="Capa_1" data-name="Capa 1" xmlns="http://www.w3.org/2000/svg" viewBox="0 0 365.4 365.5"><defs><style>.cls-1{fill:#fff;}</style></defs><title>Logo_icon</title><path class="cls-1" d="M1.23,192.17C1.12,82.72,82.92.23,184.79,1.28c97.69,1,180.75,80.76,179.36,184.25-.67,49.9-19.42,92.82-55.3,127.57s-79.06,51.83-128.76,51.11c-50-.74-92.95-19.4-127.78-55.38C18.39,273.79,1.82,231.38,1.23,192.17Zm179.18-27.3a8.89,8.89,0,0,0-3.9-.79,61,61,0,0,0-19.09,2.72c-2.56.71-5.06,1.62-7.59,2.41-1,.3-1.36-.09-1.12-1.07a11.63,11.63,0,0,1,.42-1.26q3.27-9.12,6.55-18.23c.91-2.51.93-2.5,3.69-1.87a26.52,26.52,0,0,0,7.89.8c4.49-.29,6.93-2.17,8.44-6.43,1.33-3.76,2.13-7.66,3.11-11.52,1.79-7.12,3.53-14.27,6.56-21,2-4.46,4.7-8.3,9.42-10.35,1.78-.77,3.43-1.84,5.15-2.76,9.22-4.91,18.44-9.8,28.3-13.38a46.11,46.11,0,0,1,6.89-1.94c3-.6,4.64.32,5.89,3.19a27.93,27.93,0,0,1,1.59,5c1.57,6.83,2.06,13.8,2.58,20.76.38,5,.41,10.06.66,15.1.3,5.81.3,11.54-3.53,16.47-1,1.32-1.95,2.74-3,4-4.85,5.9-10.47,11.05-15.91,16.37-1.84,1.8-3.53,3.72-5.29,5.59-3,3.17-2.93,6.62-1.07,10.27.24.47.51.93.79,1.38a31.53,31.53,0,0,0,4.89,6.25c.79.75.9,1.39.11,2.24-1,1.11-1.93,2.31-2.9,3.46-3.58,4.27-7.15,8.55-10.76,12.79-.42.5-.69,1.47-1.56,1.17s-.54-1.21-.69-1.87c-.68-2.84-1.23-5.71-2-8.52-2-6.91-4.33-13.67-8.53-19.61a32.32,32.32,0,0,0-2.34-2.88c-.61-.69-1.23-.64-1.63.25-.29.65-.54,1.31-.8,2a111.82,111.82,0,0,0-7.31,34.09A89,89,0,0,0,186.54,233a87.27,87.27,0,0,0,12.16,27.54c4.54,7.05,9.76,13.5,16.64,18.41,9.72,6.93,20.36,9.5,32.15,6.53a62.22,62.22,0,0,0,20.75-9.83,115.77,115.77,0,0,0,19.82-18A157.84,157.84,0,0,0,314.26,218c9-20,12.58-41.15,13.34-62.89a159.66,159.66,0,0,0-.45-17.5,116.4,116.4,0,0,0-7.24-32.78,113.69,113.69,0,0,0-15.56-28.28,135.64,135.64,0,0,0-20.46-21.1A140.48,140.48,0,0,0,232.17,27a126,126,0,0,0-30.74-5.39c-4.12-.18-8.25-.36-12.41-.21a145.82,145.82,0,0,0-22.38,2.36A137.09,137.09,0,0,0,119,42.5a140,140,0,0,0-53.76,62.44c-6.35,14.61-8.89,30.14-10.12,45.88a107.88,107.88,0,0,0,.27,19.35,77.52,77.52,0,0,0,5,21.37,41.85,41.85,0,0,0,10.24,15.34c7.48,6.9,16.51,10,26.6,10.38a80.4,80.4,0,0,0,21.31-2.16,85.83,85.83,0,0,0,28-11.67c11.59-7.62,20.81-17.51,28.37-29A64.81,64.81,0,0,0,180.41,164.87Z"/></svg>