<svg id="Capa_1" data-name="Capa 1" xmlns="http://www.w3.org/2000/svg" viewBox="0 0 943.42 622.31"><defs><style>.cls-1{fill:#fff;}</style></defs><title>Logo</title><path class="cls-1" d="M286.21,194.92C286.1,83.4,369.46-.66,473.26.41,572.81,1.43,657.45,82.7,656,188.16c-.68,50.85-19.78,94.58-56.35,130-36.42,35.27-80.57,52.82-131.21,52.08-50.94-.74-94.71-19.76-130.21-56.43C303.69,278.1,286.81,234.89,286.21,194.92ZM468.8,167.1a9.24,9.24,0,0,0-4-.8,62.45,62.45,0,0,0-19.45,2.77c-2.61.73-5.15,1.65-7.73,2.46-1,.31-1.39-.1-1.15-1.09.11-.44.28-.86.43-1.28,2.22-6.2,4.43-12.4,6.68-18.59.92-2.55.95-2.54,3.75-1.89a27.59,27.59,0,0,0,8,.81c4.59-.3,7.07-2.21,8.6-6.55,1.36-3.84,2.18-7.81,3.17-11.75,1.84-7.25,3.6-14.53,6.69-21.39,2-4.54,4.79-8.45,9.6-10.53,1.82-.79,3.49-1.89,5.25-2.82,9.39-5,18.79-10,28.83-13.64a48.19,48.19,0,0,1,7-2c3.11-.61,4.74.32,6,3.25a28.79,28.79,0,0,1,1.62,5.15c1.6,7,2.1,14.06,2.63,21.14.38,5.12.41,10.26.67,15.39.31,5.93.3,11.76-3.6,16.78-1,1.36-2,2.8-3.07,4.12-4.95,6-10.68,11.25-16.22,16.68-1.87,1.83-3.6,3.79-5.39,5.69-3,3.23-3,6.74-1.09,10.46.25.49.52.95.81,1.41a32,32,0,0,0,5,6.37c.81.77.92,1.42.11,2.29-1,1.12-2,2.35-2.95,3.52-3.65,4.35-7.29,8.71-11,13-.42.5-.7,1.49-1.59,1.19s-.54-1.24-.7-1.91c-.69-2.89-1.26-5.82-2.07-8.68-2-7-4.41-13.93-8.69-20a33.45,33.45,0,0,0-2.38-2.93c-.63-.71-1.25-.65-1.66.26-.3.66-.56,1.33-.82,2a113.86,113.86,0,0,0-7.45,34.74A90.84,90.84,0,0,0,475,236.57a89.27,89.27,0,0,0,12.39,28.07c4.63,7.18,9.95,13.75,17,18.75,9.91,7.07,20.75,9.69,32.77,6.66a63.49,63.49,0,0,0,21.14-10,117.77,117.77,0,0,0,20.2-18.31,160.84,160.84,0,0,0,26.69-40.5c9.21-20.36,12.82-41.93,13.6-64.08a163.43,163.43,0,0,0-.46-17.84,118.15,118.15,0,0,0-7.39-33.39A115.73,115.73,0,0,0,595.1,77.08a138.09,138.09,0,0,0-20.86-21.49,142.9,142.9,0,0,0-52.7-29,128.7,128.7,0,0,0-31.32-5.49c-4.2-.18-8.41-.36-12.65-.22a148.93,148.93,0,0,0-22.81,2.41,139.79,139.79,0,0,0-48.54,19.1A142.69,142.69,0,0,0,351.44,106c-6.48,14.89-9.06,30.71-10.32,46.75a110.16,110.16,0,0,0,.28,19.72,78.54,78.54,0,0,0,5.08,21.77,42.7,42.7,0,0,0,10.43,15.64c7.63,7,16.83,10.2,27.11,10.57a81.75,81.75,0,0,0,21.71-2.2A87.5,87.5,0,0,0,434.3,206.4c11.8-7.76,21.2-17.85,28.91-29.58A66.83,66.83,0,0,0,468.8,167.1Z"/><path class="cls-1" d="M650.53,509.42c0-11.46.08-22.93,0-34.4,0-4.87.4-9.72.51-14.58a12.82,12.82,0,0,1,2.9-8c2.86-3.48,10.26-5.45,15-1.7a36.31,36.31,0,0,1,3.94,3.7,2.3,2.3,0,0,0,3.08.56A52.54,52.54,0,0,1,692,450.35c9.18-1,18.18-.3,26.7,3.72a61.48,61.48,0,0,1,13.27,8.31c1.88,1.56,2,1.59,3.82,0a54,54,0,0,1,15.19-9.24c8.18-3.21,16.62-3.71,25.26-2.66a46.28,46.28,0,0,1,20.18,7.22c11.08,7.31,17.43,17.74,19.84,30.69a95.66,95.66,0,0,1,1.14,17.24c.06,14.71,0,29.43,0,44.14a20.21,20.21,0,0,1-.64,5.63,11.38,11.38,0,0,1-11.18,8.52c-2.25,0-4.51.16-6.63-.9-4.87-2.44-7.12-6.47-7.13-11.8q0-18.15,0-36.3c0-5.41.06-10.82-.46-16.21-.49-5-1.47-9.84-4.05-14.19-6-10.12-17.9-12.09-26.72-8.48-5.95,2.43-9.46,7-11.48,12.92A41.71,41.71,0,0,0,747,501.7c-.35,15.62.08,31.23,0,46.85,0,3.37-.33,6.65-2.08,9.65a10.55,10.55,0,0,1-9.47,5.71,20,20,0,0,1-5.12-.23,11.66,11.66,0,0,1-8.92-10.94c0-.72,0-1.45,0-2.17,0-14.72.09-29.43-.05-44.15A58.77,58.77,0,0,0,719.72,492c-1.6-6-4.57-11.12-10.05-14.53-9.95-6.19-26.11-3.11-31.17,10.67-1.72,4.65-1.88,9.49-2.12,14.36-.76,15.33-.2,30.67-.41,46a29.18,29.18,0,0,1-.48,6.45,11.12,11.12,0,0,1-11,9,16.56,16.56,0,0,1-5.64-.44,11.17,11.17,0,0,1-7.9-9.39,38.81,38.81,0,0,1-.41-6.46Q650.54,528.52,650.53,509.42Z"/><path class="cls-1" d="M92.21,463.05a7.58,7.58,0,0,0,.36-3.47q0-26.26,0-52.52a20.19,20.19,0,0,1,1-6.38c1.89-5.78,7.47-9,14-8A11.79,11.79,0,0,1,117.37,404c0,2,.12,4,.12,6q0,43.18,0,86.37c0,6.22.1,12.46-.15,18.67-.79,19.52-9.46,34.44-26.43,44.32a57.48,57.48,0,0,1-25.16,7.43,58.42,58.42,0,0,1-26.71-4,55.42,55.42,0,0,1-34.4-46.17C3.19,500.62,7.32,486.37,17.42,474c8.82-10.84,20.48-16.79,34.15-19.08a52.37,52.37,0,0,1,9.39-.84,57.93,57.93,0,0,1,16.49,2.5A86.9,86.9,0,0,1,92.21,463.05Zm.43,47.53a46.25,46.25,0,0,0-.25-4.86c-2.84-18.82-19.18-29.52-36-27C40.42,481,29.21,493.85,29.29,511.31A32.06,32.06,0,0,0,33.66,527c8,14.3,26.41,20.57,41.65,12.66C87,533.61,92.2,523.47,92.64,510.58Z"/><path class="cls-1" d="M633.61,500.93c0,10.19,0,20.39,0,30.59,0,6.49-.42,13-.5,19.45-.08,7.17-4.05,10.74-11.34,11.68a9,9,0,0,1-7.38-2.76,33.83,33.83,0,0,1-3.88-4.14c-1.53-2-1.59-2-4-.77A67.5,67.5,0,0,1,587,561.85a52.13,52.13,0,0,1-31.89-4.27c-17.63-8.27-28.5-22.13-31.74-41.36a54.82,54.82,0,0,1,27-57.42,53,53,0,0,1,34.39-6.66,66.21,66.21,0,0,1,21.56,6.72c2.54,1.3,2.55,1.27,4.45-.9.83-.95,1.63-1.92,2.51-2.82a11.34,11.34,0,0,1,11.94-3c4.61,1.33,7.1,4.68,8,9.34a35,35,0,0,1,.54,6.45v33Zm-55.92,37a30.61,30.61,0,0,0,31.41-31c-.17-17.24-13.49-31.09-30.92-31.21S547,490.5,547,506.74C546.87,524.42,561.68,538.33,577.69,537.92Z"/><path class="cls-1" d="M454.32,563.93c-13.11-.06-25.28-4.84-35.7-14.28a55.85,55.85,0,0,1-15.56-24,51.19,51.19,0,0,1-2.75-19.16c.71-13.18,4.94-25,13.86-35a55.51,55.51,0,0,1,64.16-13.81c1.07.48,2.17.88,3.24,1.37,3,1.37,5.63.71,7.93-1.5a23.14,23.14,0,0,1,3.53-2.94c7.82-5.05,17.69.68,18.62,9.37.39,3.62-1.44,6.6-3.72,9.29a22.48,22.48,0,0,0-1.71,2.08c-1.86,2.83-1.66,5.79-.41,8.78a73.65,73.65,0,0,1,3.61,9.9c3.41,13.14,2.48,25.92-3.3,38.24-6.51,13.86-17.26,23.14-31.5,28.41C468.83,562.84,463.41,563.79,454.32,563.93Zm-29.27-55.21c0,15.3,11.31,30.47,30.66,30.49,18.86,0,31.73-14.74,31.1-32.07-.58-15.8-13.9-30.17-31.3-29.85A30.73,30.73,0,0,0,425.05,508.72Z"/><path class="cls-1" d="M255.51,508.58c-.7-23.61,15.49-46.33,38.87-53.21,11.92-3.51,23.8-3.7,35.51,1,3,1.21,6,2.42,9,3.78,1.33.62,2.26.65,3.3-.53a34.6,34.6,0,0,1,3.73-3.53c6.83-5.72,16.39-3.61,19.88,4.38a10.47,10.47,0,0,1-2.29,12.26c-4.18,4.17-4.12,8.48-1.87,13.31a55.21,55.21,0,0,1,.9,43.11c-7.54,18.16-21.13,29.29-40.22,33.59a51.8,51.8,0,0,1-33.56-3.4c-17.68-8-28.25-21.84-32.39-40.69A37.5,37.5,0,0,1,255.51,508.58Zm24.5-.46c-.05,15.93,11.47,31,30.7,31.09,16.87.07,31.08-11.94,31.25-30.65a31,31,0,1,0-61.95-.44Z"/><path class="cls-1" d="M888.55,566.72c-19.81-.54-35.61-8.62-46.72-25.24-5.11-7.64-7.61-16.19-8.41-25.37a54.73,54.73,0,0,1,8.43-35.34c8.77-13.67,21.47-21.51,37.43-24.21a60.47,60.47,0,0,1,10.2-.94c15.84.05,29.07,6.08,39.71,17.78a47.88,47.88,0,0,1,6.69,8.82c2,3.52,2.89,7.23.94,11.06a16.54,16.54,0,0,1-5.71,6q-7.62,5.16-15.37,10.11c-7.08,4.5-14.22,8.9-21.33,13.35a19.65,19.65,0,0,1-11.3,3.09,8.62,8.62,0,0,1-7.52-4.07c-3.45-5.48-4-12.45,3.06-17.63,4.8-3.52,9.92-6.57,14.9-9.82,3.25-2.12,6.54-4.17,9.78-6.3,2.41-1.59,2.42-2,0-3.47a28.62,28.62,0,0,0-22.92-3.23,30.64,30.64,0,0,0-22.87,27.24,30.31,30.31,0,0,0,15.71,29.61c12.72,7.06,27.21,4.9,37.53-5.38a19.88,19.88,0,0,1,5.16-3.9c5.36-2.66,10.81-1.59,14.66,2.92a12,12,0,0,1,.43,14.81A47.2,47.2,0,0,1,912,561.75,56.7,56.7,0,0,1,888.55,566.72Z"/><path class="cls-1" d="M242,507.51v39.26a47.07,47.07,0,0,1-.9,7.76c-1.45,8.67-13.1,11.31-19.09,5.66a42.22,42.22,0,0,1-3.74-4.26c-1-1.17-1.8-1.33-3.21-.54a56.68,56.68,0,0,1-19.77,7c-16.45,2.37-31.34-1.12-44.27-11.78a53.62,53.62,0,0,1-19.21-32.89,41.84,41.84,0,0,1-.74-7.25q0-22.47,0-44.94a19,19,0,0,1,1-6.09,10.57,10.57,0,0,1,9.81-7.25c8-.31,12.93,4.32,13,12.44.07,12.72-.09,25.45.06,38.17.08,6.59,1,13.07,4.05,19.12,4.79,9.42,12.56,14.66,22.78,16.36s19.15-1.2,26.33-8.66c6-6.23,8.67-14,9.1-22.57.64-12.88.34-25.78.39-38.67a32.56,32.56,0,0,1,1.09-8.28,10.15,10.15,0,0,1,10-7.9,18.11,18.11,0,0,1,4,.21,10,10,0,0,1,7.91,7.33,30.57,30.57,0,0,1,1.33,8.78Q241.94,488,242,507.51Z"/><path class="cls-1" d="M453.56,617.49c-13.89-.23-24.89-4.68-34.29-13.24A56.23,56.23,0,0,1,405.62,585a17.05,17.05,0,0,1-1.78-8.85c.6-5.66,6-9.19,10.55-9.6a11,11,0,0,1,10.68,5.06c1.13,1.64,2.05,3.39,3,5.13,4.78,8.66,11.8,14.51,21.62,16.51,10.44,2.12,19.55-.72,27.42-7.85,3.69-3.34,6-7.65,8.46-11.83,1.59-2.66,3.4-5.18,6.44-6.32A11.52,11.52,0,0,1,503.74,569a10.15,10.15,0,0,1,4,10.53c-1.42,7.69-5.17,14.09-10.52,19.74-9.67,10.2-21.58,15.78-35.37,17.51C458.71,617.17,455.56,617.67,453.56,617.49Z"/></svg>