<svg id="Capa_1" data-name="Capa 1" xmlns="http://www.w3.org/2000/svg" viewBox="0 0 112.79 112.82"><defs><style>.cls-1{fill:#68d1f5;}.cls-2{fill:#c4f0ff;}.cls-3{fill:#fff;}</style></defs><title>Perfil_01</title><path class="cls-1" d="M111.85,56.52A55.46,55.46,0,1,1,56.5,1,55.17,55.17,0,0,1,111.85,56.52Z"/><path class="cls-2" d="M102,56.5A45.61,45.61,0,1,1,56.48,10.81,45.37,45.37,0,0,1,102,56.5Z"/><path class="cls-3" d="M67.09,55.24h0a17.73,17.73,0,1,0-20.37,0h0A39.07,39.07,0,0,0,19.15,82.74a45.62,45.62,0,0,0,75.11-.91A39.08,39.08,0,0,0,67.09,55.24Z"/></svg>