<svg id="Capa_1" data-name="Capa 1" xmlns="http://www.w3.org/2000/svg" viewBox="0 0 112.79 112.82"><defs><style>.cls-1{fill:#fce698;}.cls-2{fill:#fefdfb;}</style></defs><title>Suma y resta_01</title><rect class="cls-1" x="1.72" y="1.7" width="109.35" height="109.43" rx="32.92"/><path class="cls-2" d="M45.19,89.64h-7.8V89h3.16q5.1,0,10.21,0H62q6.62,0,13.23,0v.66H72.9c-3.61,0-7.21,0-10.81,0H45.19Z"/><path class="cls-1" d="M75.25,89.29c-6.25,0-12.51,0-18.76,0s-12.73,0-19.1,0c-4,0-6.29-1.91-6.38-5.09s2.66-5.44,6.53-5.46q18.76,0,37.53,0C79,78.75,81.76,81,81.78,84,81.8,87.32,79.43,89.27,75.25,89.29Zm.27-45.54c-1.76,0-3.52,0-5.27,0-6.26,0-7.82,0-8.21,3.46,0,.29-.06.6-.08.94s0,.7,0,1.09c0,.79,0,1.68,0,2.71,0,1.54,0,3.07,0,4.61-.14,4.75-2.26,7.58-5.6,7.51S51,61.29,50.9,56.71c-.08-3.08-.18-6.17,0-9.23.2-2.82-.62-4-3.64-3.78-3.49.25-7,.11-10.54,0S31.1,41.65,31,38.67a5.46,5.46,0,0,1,5.51-5.42c3.83-.18,7.69-.14,11.53,0,2.14.06,2.94-.7,2.87-2.86-.13-3.51-.11-7,0-10.54.11-3.82,1.71-6,4.42-6.45,3.75-.6,6.25,1.56,6.51,6a95.2,95.2,0,0,1,0,10.55c-.15,2.64.82,3.48,3.4,3.34,3.39-.18,6.81-.1,10.21,0,3.8.08,6.33,2.26,6.31,5.32S79.45,43.69,75.52,43.75Z"/><path class="cls-2" d="M75.47,33.21c-3.4-.08-6.82-.16-10.21,0-2.58.14-3.55-.7-3.4-3.34a95.2,95.2,0,0,0,0-10.55c-.26-4.41-2.76-6.57-6.51-6C52.63,13.8,51,16,50.92,19.82c-.11,3.51-.13,7,0,10.54.07,2.16-.73,2.92-2.87,2.86-3.84-.11-7.7-.15-11.53,0A5.46,5.46,0,0,0,31,38.67c.09,3,2.3,5,5.74,5.07s7,.21,10.54,0c3-.21,3.84,1,3.64,3.78-.21,3.06-.11,6.15,0,9.23.12,4.58,2.17,7.3,5.4,7.37s5.46-2.76,5.6-7.51c0-1.54,0-3.07,0-4.61,0-1,0-1.92,0-2.71,0-.39,0-.76,0-1.09s0-.65.08-.94c.39-3.46,2-3.46,8.21-3.46,1.75,0,3.51,0,5.27,0,3.93-.06,6.25-2,6.26-5.22S79.27,33.29,75.47,33.21Z"/><path class="cls-2" d="M70.25,43.76c-6.26,0-7.82,0-8.21,3.46.39-3.46,2-3.46,8.21-3.46,1.75,0,3.51,0,5.27,0C73.76,43.78,72,43.76,70.25,43.76Z"/><path class="cls-2" d="M62,48.16c0,.33,0,.7,0,1.09C61.93,48.86,62,48.49,62,48.16Z"/><path class="cls-2" d="M75.07,78.74q-18.76,0-37.53,0c-3.87,0-6.62,2.41-6.53,5.46s2.42,5.07,6.38,5.09c6.37,0,12.73,0,19.1,0s12.51,0,18.76,0c4.18,0,6.55-2,6.53-5.27C81.76,81,79,78.75,75.07,78.74Z"/></svg>